<svg width="144" height="144" viewBox="0 0 144 144" fill="none" xmlns="http://www.w3.org/2000/svg">
<rect width="144" height="144" rx="20" fill="url(#gradient0_linear_1_1)"/>
<path d="M72 40C88.5685 40 102 53.4315 102 70C102 86.5685 88.5685 100 72 100C55.4315 100 42 86.5685 42 70C42 53.4315 55.4315 40 72 40Z" fill="white"/>
<path d="M72 50C83.598 50 92 58.402 92 70C92 81.598 83.598 90 72 90C60.402 90 52 81.598 52 70C52 58.402 60.402 50 72 50Z" fill="#667EEA"/>
<text x="72" y="120" text-anchor="middle" fill="white" font-family="Arial, sans-serif" font-size="14" font-weight="bold">Next</text>
<defs>
<linearGradient id="gradient0_linear_1_1" x1="0" y1="0" x2="144" y2="144" gradientUnits="userSpaceOnUse">
<stop stop-color="#667EEA"/>
<stop offset="1" stop-color="#764BA2"/>
</linearGradient>
</defs>
</svg>
